<svg width="96" height="99" viewBox="0 0 96 99" fill="none" xmlns="http://www.w3.org/2000/svg">
<path opacity="0.4" d="M25.9993 18.6646C31.7541 18.4084 37.6021 18.9792 43.2987 19.7713C45.6985 20.1092 48.0983 20.5169 50.4748 20.9945C51.5815 21.2159 52.6765 21.4372 53.7716 21.7168C55.88 22.2535 55.3042 20.4826 55.586 18.3253C55.6898 17.5314 55.7933 16.7374 55.8969 15.9433C56.6127 10.4523 51.8221 5.85875 46.5148 7.43897C41.0707 9.05996 35.7506 11.1421 30.6008 13.4457C21.9337 17.325 12.8937 22.6488 7.98928 31.0946C4.26147 37.5251 10.6337 47.963 18.5087 44.7827C34.3975 38.3872 51.4949 36.3292 67.7347 31.1672C72.1837 29.7531 74.2467 24.7859 72.4334 20.4842C70.4112 15.687 64.5344 13.8732 60.0263 16.4769C50.8727 21.7636 41.4123 26.4974 32.3832 32.0265C20.128 39.5404 9.98134 48.9415 1.67529 60.6725C-4.25427 69.0252 6.88259 76.9584 14.4314 73.4286C36.742 62.9654 60.0417 54.7917 82.5847 44.8393C87.2302 42.7884 88.9861 37.1501 86.4229 32.7663C83.9071 28.4638 78.2757 27.1687 74.125 29.9278C58.5086 40.3083 42.6533 51.0284 30.9154 65.7284C25.0207 73.1141 30.461 82.9812 39.9786 81.3037C48.0167 79.8941 55.5772 75.1062 62.8348 71.5414C67.5759 69.2105 72.3125 66.8795 77.0501 64.5486C81.6004 62.3098 82.9584 56.4609 79.8609 52.4455C77.0052 48.7436 71.5859 48.2537 68.3834 51.6601C59.4156 61.1992 52.3121 72.0362 45.2791 83.2258C38.8719 93.4074 54.9948 102.774 61.3787 92.6386C69.1605 80.2552 76.8374 68.6524 87.753 58.7736C95.9891 51.318 85.5163 39.6802 76.4647 44.142C69.4633 47.5902 62.4504 51.0268 55.4491 54.475C51.5606 56.3844 47.597 58.7315 43.5011 60.5812C39.5559 62.3629 37.3563 67.3176 39.5352 71.0581C41.7401 74.8435 47.0873 75.2488 50.1338 72.1009C62.1001 59.7363 76.9624 50.5101 91.2012 40.9384C101.243 34.1817 92.6224 19.7713 81.7885 24.8388C59.5979 35.2458 36.4289 43.3878 13.9992 53.2676C9.61319 55.1996 8.60686 60.9173 11.9958 64.3062C15.0236 67.334 20.0422 66.8902 22.9281 63.7268C37.9043 47.3107 59.4335 39.4226 77.9791 27.4017C86.3201 21.9964 81.0895 6.22305 70.8031 10.3702C54.7895 16.8159 37.5483 18.8558 21.1946 24.1079C17.3245 25.3508 16.034 30.0359 18.5115 33.2584C21.1761 36.7241 27.0176 36.6376 30.7018 34.2844C33.992 32.1829 37.7904 30.4853 40.9922 29.1491C47.7838 26.3183 55.0414 24.1166 62.3106 22.9167C70.0109 21.6469 71.5603 9.14705 64.5357 5.88521C59.1187 3.36893 53.1425 2.51853 47.2712 1.69142C40.2582 0.712865 33.1055 -0.25404 26.0226 0.0604946C14.047 0.56142 13.9771 19.2122 25.9993 18.6646Z" fill="#D7CAFF"/>
<path d="M65.7706 80.5813H31.2999C29.1214 80.5813 27.3507 78.8106 27.3507 76.6322V15.3561C27.3507 13.1777 29.1214 11.407 31.2999 11.407H65.7706C67.949 11.407 69.7197 13.1777 69.7197 15.3561V76.6322C69.7197 78.8106 67.949 80.5813 65.7706 80.5813Z" fill="#EBEBEB"/>
<path d="M65.7706 80.5813H31.2999C29.1214 80.5813 27.3507 78.8106 27.3507 76.6322V15.3561C27.3507 13.1777 29.1214 11.407 31.2999 11.407H65.7706C67.949 11.407 69.7197 13.1777 69.7197 15.3561V76.6322C69.7197 78.8106 67.949 80.5813 65.7706 80.5813Z" stroke="#322864" stroke-width="2.5" stroke-miterlimit="10" stroke-linecap="round"/>
<path d="M34.387 20.1324H62.6718" stroke="#322864" stroke-miterlimit="10" stroke-linecap="round"/>
<path d="M34.387 24.4661H62.6718" stroke="#322864" stroke-miterlimit="10" stroke-linecap="round"/>
<path d="M34.387 28.8113H62.6718" stroke="#322864" stroke-miterlimit="10" stroke-linecap="round"/>
<path d="M34.387 33.1566H62.6718" stroke="#322864" stroke-miterlimit="10" stroke-linecap="round"/>
<path d="M34.387 37.4901H62.6718" stroke="#322864" stroke-miterlimit="10" stroke-linecap="round"/>
<path d="M34.387 41.8354H62.6718" stroke="#322864" stroke-miterlimit="10" stroke-linecap="round"/>
<path d="M34.387 46.1806H62.6718" stroke="#322864" stroke-miterlimit="10" stroke-linecap="round"/>
<path d="M34.387 50.5142H57.9421" stroke="#322864" stroke-miterlimit="10" stroke-linecap="round"/>
<path d="M34.387 54.8594H62.6718" stroke="#322864" stroke-miterlimit="10" stroke-linecap="round"/>
<path d="M34.387 59.2047H62.6718" stroke="#322864" stroke-miterlimit="10" stroke-linecap="round"/>
<path d="M34.387 63.5383H62.6718" stroke="#322864" stroke-miterlimit="10" stroke-linecap="round"/>
<path d="M34.387 67.8835H62.6718" stroke="#322864" stroke-miterlimit="10" stroke-linecap="round"/>
<path d="M34.387 72.2288H62.6718" stroke="#322864" stroke-miterlimit="10" stroke-linecap="round"/>
<path d="M24.8459 90.0757C31.9521 90.0757 33.5131 84.9383 33.8277 82.0959C33.9441 81.0591 34.8062 80.2785 35.8547 80.2203C42.8327 79.8359 44.8247 77.3778 45.2674 75.3858C45.5703 74.0344 44.5219 72.753 43.1356 72.753H29.5523C28.3524 72.753 27.3855 71.7861 27.3855 70.5862V61.7909C19.1261 64.7149 19.1028 76.0615 19.1028 76.0615V96.9605L35.2139 96.7392C35.0508 96.7392 42.2036 91.4038 42.2036 80.8377H34.946" fill="#FFAF0A"/>
<path d="M24.8459 90.0757C31.9521 90.0757 33.5131 84.9383 33.8277 82.0959C33.9441 81.0591 34.8062 80.2785 35.8547 80.2203C42.8327 79.8359 44.8247 77.3778 45.2674 75.3858C45.5703 74.0344 44.5219 72.753 43.1356 72.753H29.5523C28.3524 72.753 27.3855 71.7861 27.3855 70.5862V61.7909C19.1261 64.7149 19.1028 76.0615 19.1028 76.0615V96.9605L35.2139 96.7392C35.0508 96.7392 42.2036 91.4038 42.2036 80.8377H34.946" stroke="#322864" stroke-width="2.5" stroke-miterlimit="10" stroke-linecap="round" stroke-linejoin="round"/>
</svg>
