<svg width="103" height="102" viewBox="0 0 103 102" fill="none" xmlns="http://www.w3.org/2000/svg">
<path opacity="0.4" d="M35.1976 34.3716C40.9415 35.2144 46.5838 36.9001 52.0623 38.7731C54.9265 39.7564 57.7828 40.7866 60.5845 41.9494C61.7005 42.4098 62.7852 42.9561 63.9012 43.4087C64.4007 43.6429 64.8845 43.8926 65.3762 44.1579C64.7723 43.7418 65.2017 43.1839 65.416 42.4825C66.0913 40.2719 66.7678 38.0612 67.4443 35.8497C68.6015 32.0667 65.838 28.2287 61.889 28.4659C54.9298 28.884 47.9932 30.0697 41.238 31.6635C31.4516 33.9657 21.1736 37.4542 14.3918 45.2817C9.69371 50.6978 14.3918 61.1475 22.0399 59.6569C39.8728 56.1866 58.1061 57.5964 76.0443 55.4094C80.5024 54.8659 83.317 50.5046 82.2909 46.1324C81.1811 41.4034 76.1113 38.7714 71.526 40.3743C60.7299 44.1483 49.6925 47.1898 38.9748 51.2051C24.9586 56.4494 12.8076 64.1053 1.99884 74.438C-0.779436 77.0914 -0.436055 82.3046 1.64765 85.1999C4.11375 88.6103 8.10167 89.2502 11.9413 88.2747C37.2093 81.8983 63.046 78.1407 88.4392 72.3204C93.1998 71.2292 95.8302 66.1664 94.0879 61.6036C92.4404 57.289 87.5399 55.191 83.2775 56.9692C64.8652 64.6507 46.0624 72.5754 30.8273 85.5823C23.827 91.5602 28.0881 101.261 36.8287 101.503C41.2692 101.628 45.4444 100.512 49.7055 99.3722C54.3099 98.1391 56.3624 92.1065 54.7938 87.9938C52.952 83.163 48.0276 81.6724 43.4154 82.9055C39.5543 83.9358 36.6848 88.0516 38.0952 91.7906C38.133 91.8909 38.1708 91.9912 38.2087 92.0915C39.6378 95.8801 44.4094 97.1148 47.7016 94.7574C62.7443 83.9864 80.4131 77.3534 97.3731 70.1769C108.065 65.6505 101.861 50.9866 91.083 53.7024C65.9389 60.0475 40.2316 63.7995 14.9586 69.5713C10.4848 70.593 8.56192 75.8364 11.2402 79.5628C13.5473 82.7727 18.1564 83.1838 21.2911 80.7754C40.1966 66.2507 64.6041 62.4415 86.4864 53.6009C95.3129 50.0345 92.6126 34.6213 82.4985 36.5957C64.5384 40.0908 46.1723 38.6359 28.1104 40.8906C24.2434 41.3733 22.2216 45.5921 24.0513 49.0329C25.9619 52.626 31.2446 53.4456 34.9788 51.8282C39.0446 50.0671 43.7686 48.95 47.5984 48.1693C55.3947 46.585 63.4876 45.6407 71.4556 45.8827C79.1193 46.109 82.0146 34.5511 76.2161 30.3056C71.2917 26.7079 65.2045 24.71 59.4919 22.759C52.6008 20.4022 45.4991 18.0531 38.2646 16.9918C27.0111 15.3607 23.9597 32.7249 35.1976 34.3716Z" fill="#D7CAFF"/>
<path d="M41.519 37.7273V7.03366C41.519 4.25539 43.6027 2 46.1781 2H86.8298C89.4051 2 91.4888 4.25539 91.4888 7.03366V60.4686C91.4888 60.4686 74.2261 60.2188 67.5536 60.2188C63.7998 44.5169 51.8751 47.0845 49.3621 46.7099C45.2806 41.4733 41.519 37.7273 41.519 37.7273Z" fill="#EBEBEB"/>
<path d="M41.519 32.2722V6.65907C41.519 4.0837 43.6027 2 46.1781 2H86.8298C89.4051 2 91.4888 4.0837 91.4888 6.65907V61.5611" stroke="#322864" stroke-width="2.5" stroke-miterlimit="10" stroke-linecap="round"/>
<path d="M49.8304 12.2858H83.1852M49.8304 37.8834H83.1852H49.8304ZM49.8304 32.7639H83.1852H49.8304ZM49.8304 27.6444H83.1852H49.8304ZM49.8304 22.5249H83.1852H49.8304ZM49.8304 17.4053H83.1852H49.8304Z" stroke="#302864" stroke-miterlimit="10" stroke-linecap="round"/>
<path d="M41.3317 35.745C33.7929 35.2378 32.5833 37.4307 32.5833 37.4307L27.1984 42.1444L22.8203 47.8649L19.4567 51.8996L12.7295 54.2564L7.68027 60.3124L5.99458 65.3617L5.54974 69.7398L7.67247 74.7891L11.036 79.5028L15.7497 82.1952L21.4702 84.2165L73.9608 83.6312L80.3523 83.8809L86.0728 81.1885L88.7652 77.8249L89.7719 74.4613L90.2168 70.4266L87.7507 66.7274L83.037 63.3639L79.0022 62.6927L78.6667 60.0081L76.981 55.9655L72.6029 52.2664L69.0676 50.2451L65.8679 49.574L62.8399 49.2384L60.8186 49.9095L59.1329 47.2171L57.4472 43.518L55.426 41.1611L51.3912 38.4687C51.4302 38.4375 48.8705 36.2523 41.3317 35.745Z" fill="#FFAF0A"/>
<path d="M89.0851 72.4401C89.0851 77.5596 84.949 81.7114 79.8373 81.7114H76.739V81.688H21.2516C13.4475 81.4383 7.19638 75.0311 7.19638 67.1489C7.19638 59.3292 13.3538 52.9142 21.1189 52.5942C21.7043 52.5708 22.1959 52.165 22.3442 51.6031C24.5762 42.8936 32.4349 36.6972 41.5346 36.6972C49.8772 36.6972 57.2365 41.9181 60.1084 49.6286C60.3503 50.2764 61.0449 50.6275 61.7082 50.4402C62.8711 50.1125 64.0807 49.9408 65.3138 49.9408C72.158 49.9408 77.8628 55.1852 78.5262 61.9904C78.5886 62.6693 79.1583 63.1844 79.8373 63.1844C84.9412 63.1766 89.0851 67.3206 89.0851 72.4401ZM91.7229 72.4401C91.7229 66.2514 87.0171 61.1631 81.0001 60.5778C79.7046 52.9844 73.1257 47.2796 65.306 47.2796C64.229 47.2796 63.1754 47.3888 62.1375 47.5995C58.6178 39.4676 50.5874 34.0438 41.5268 34.0438C31.5453 34.0438 22.8671 40.6304 20.0342 50.011C11.317 50.8617 4.54297 58.2288 4.54297 67.1411C4.54297 76.467 11.9491 84.0448 21.1814 84.3258V84.3492H74.546H76.7312H79.8294C86.4005 84.357 91.7229 79.0268 91.7229 72.4401Z" fill="#322864"/>
<path d="M80.0714 81.5241C80.0714 87.2211 75.4279 91.8412 69.6919 91.8412C63.9636 91.8412 59.3124 87.2211 59.3124 81.5241C59.3124 75.8271 63.9558 71.207 69.6919 71.207C75.4279 71.207 80.0714 75.8271 80.0714 81.5241Z" fill="#322864"/>
<path d="M80.0714 81.5241C80.0714 87.2211 75.4279 91.8412 69.6919 91.8412C63.9636 91.8412 59.3124 87.2211 59.3124 81.5241C59.3124 75.8271 63.9558 71.207 69.6919 71.207C75.4279 71.207 80.0714 75.8271 80.0714 81.5241Z" stroke="#322864" stroke-width="2" stroke-miterlimit="10"/>
<path d="M70.4411 87.6582L74.6787 83.4206C75.0924 83.0226 75.1079 82.367 74.7177 81.9534C74.3197 81.5398 73.6642 81.5242 73.2506 81.9144C73.235 81.93 73.2272 81.9378 73.2115 81.9534L70.7064 84.4585V76.1237C70.7064 75.554 70.2382 75.0858 69.6685 75.0858C69.0988 75.0858 68.6305 75.554 68.6305 76.1237V84.4351L66.141 81.9534C65.7274 81.5554 65.0718 81.5788 64.6738 81.9924C64.2914 82.3904 64.2914 83.0226 64.6738 83.4206L68.9115 87.6582C69.1066 87.8533 69.3719 87.9626 69.6451 87.9626C69.6529 87.9626 69.6607 87.9626 69.6685 87.9626C69.6763 87.9626 69.6841 87.9626 69.6919 87.9626C69.9806 87.9626 70.246 87.8533 70.4411 87.6582Z" fill="#EBEBEA"/>
</svg>
