<svg width="108" height="97" viewBox="0 0 108 97" fill="none" xmlns="http://www.w3.org/2000/svg">
<g opacity="0.4">
<path d="M38.5858 25.745C43.5447 26.6186 48.4749 27.6107 53.3803 28.7213C59.2421 30.0485 64.9395 25.6742 64.9395 19.6641C64.9395 13.1751 58.3713 8.74943 52.4108 11.3144C45.6044 14.2433 38.8558 17.307 32.1869 20.5523C22.0773 25.4693 11.4508 30.2828 3.47803 38.4279C-3.82842 45.8837 0.893204 62.3347 12.8179 60.9791C32.1198 58.7973 51.5867 60.3596 70.9276 59.0989C77.937 58.642 82.0342 51.3636 79.3041 44.8916C76.7605 38.8618 69.4842 36.5219 63.3744 38.867C62.2467 39.2999 61.0225 39.7573 59.6205 40.289C53.2216 42.713 46.7768 45.0106 40.4354 47.5954C27.1091 53.0408 13.9667 59.3248 5.6263 71.5712C-0.588777 80.7042 9.86545 95.0529 20.5494 90.9746C33.2544 86.1384 46.844 84.3777 59.9462 80.9168C66.3929 79.2139 69.4065 72.1438 66.8149 66.0002C63.9658 59.2461 55.6003 56.626 50.4844 61.876C46.2542 66.2171 42.7446 71.2239 40.2286 76.8672C38.0228 81.8186 37.6667 87.0342 41.2625 91.5375C44.3873 95.455 50.1084 98.0168 55.1517 96.2706C66.5249 92.3302 77.8752 88.3323 89.2025 84.2885C95.923 81.8875 100.426 75.2818 98.4274 68.0328C96.6468 61.542 88.9268 56.3953 82.1717 58.8078C74.3222 61.6101 66.456 64.3903 58.5848 67.1447C53.4396 68.9451 51.5529 75.2523 54.8762 79.5734C58.5641 84.3685 66.1093 83.3299 70.4987 79.1674C71.7559 77.9752 73.1485 76.8817 74.7045 75.8907C80.2188 72.3638 82.8036 65.5284 80.1153 59.3937C77.6914 53.8794 70.764 49.3301 64.526 51.7426C51.8194 56.6604 38.1971 58.4344 25.0558 61.8721C19.2288 63.3964 17.2271 70.3008 20.899 75.0752C22.9073 77.6864 24.9156 80.2977 26.9239 82.909C27.6783 83.8898 28.7214 84.3734 29.648 83.5533C29.9697 83.2661 32.3822 81.0259 31.5206 81.7382C30.8543 82.2896 33.9101 80.0839 34.4271 79.7507C35.5874 79.0155 36.7706 78.3147 37.9769 77.6599C43.6061 74.5351 47.4431 73.0187 53.1527 70.8244C64.7787 66.3555 77.071 62.6908 87.8239 56.3034C93.4416 52.9719 95.8541 45.7803 93.2348 39.8065C90.3972 33.3386 84.3545 31.1214 77.6454 32.1554C76.4621 32.3392 74.8998 32.5 72.246 32.7068C69.4889 32.9251 66.7202 33.0514 63.9516 33.1548C58.0122 33.3731 52.0614 33.3961 46.1105 33.4191C38.8124 33.4493 31.4845 33.3901 24.1823 33.7021C18.4731 33.9461 14.9863 39.8184 17.1724 45.0981C19.5291 50.7897 27.2571 52.4989 32.6784 49.5736C36.9086 47.291 41.392 45.3684 45.5131 43.3678C54.1981 39.1516 62.9981 35.1997 71.9473 31.5695C77.4386 29.3408 81.6433 25.1361 81.6433 18.8291C81.6433 13.0621 77.542 7.58224 71.9473 6.08878C63.2393 3.76818 54.4624 1.82669 45.5935 0.2643C38.5743 -0.976418 31.3597 2.15985 29.3378 9.48927C27.6031 15.8767 31.5206 24.4928 38.5858 25.745Z" fill="#D7CAFF"/>
</g>
<path d="M49.5914 32.006L82.3326 63.7017" stroke="#322864" stroke-width="2.5" stroke-miterlimit="10" stroke-linecap="round" stroke-linejoin="round"/>
<path d="M100.312 22.9418C105.045 18.2087 108.009 11.5571 104.964 8.51274C101.92 5.46838 94.1424 6.82398 89.4208 11.5571C84.2166 16.7612 83.4929 22.4593 80.1269 25.8254C76.7609 29.1914 74.9917 29.1914 69.868 29.1914C65.1808 29.1914 61.1829 27.1924 58.6211 25.4807C56.8404 24.2974 54.4624 24.711 53.1987 26.4342C52.1073 27.9162 50.7977 29.7313 49.2927 31.6843L82.7577 64.1268C84.906 61.8062 86.5832 59.6234 87.6746 58.0151C88.6626 56.5676 88.5936 54.6491 87.4908 53.2935C85.377 50.6857 82.2062 46.01 82.2062 41.5296C82.2062 38.4853 83.3321 34.7976 85.0898 33.0284C88.9383 29.1914 94.4641 28.7893 100.312 22.9418Z" fill="#322864"/>
<path d="M82.7461 64.1268L49.2811 31.6843C44.9961 37.2561 39.1601 43.9537 32.52 47.1129C34.0249 50.9959 31.4056 51.1682 32.2098 52.4778C33.1403 53.9943 37.2416 52.5468 38.9418 53.5462C40.6765 54.5802 39.5162 55.8324 38.758 56.9123C40.9178 55.9702 42.8478 54.7525 44.2149 53.3854C44.8122 53.9828 44.3757 57.0501 42.0551 59.8762C46.4091 60.7378 48.7872 58.3598 50.924 61.6569C53.7041 65.9304 49.4305 69.5607 55.0941 71.2724C58.0581 72.1685 59.1495 74.4087 59.2758 77.028C69.2016 76.3732 77.45 69.8479 82.7461 64.1268Z" fill="#EBEBEB"/>
<path d="M55.0827 71.2954C49.4191 69.5837 53.6927 65.9534 50.9125 61.6798C48.7642 58.3827 46.3977 60.7608 42.0437 59.8992C39.8495 62.5644 36.0009 65.0229 29.7054 65.0229C29.7054 65.0229 33.9561 77.1199 57.5986 77.1199C58.1615 77.1199 58.713 77.0854 59.2759 77.051C59.138 74.4317 58.0467 72.1915 55.0827 71.2954Z" fill="#FFAF0A"/>
<path d="M17.6772 48.4226C17.6772 48.4226 18.2401 58.7619 30.5784 58.7619C33.2092 58.7619 36.1387 58.0496 38.7465 56.9123C39.5047 55.8439 40.6765 54.5802 38.9303 53.5463C37.2301 52.5468 33.1288 53.9943 32.1983 52.4779C31.3941 51.1682 34.0134 50.9959 32.5085 47.1129C30.1074 48.2617 27.6145 48.951 25.0412 48.951C21.5488 48.9625 17.6772 48.4226 17.6772 48.4226Z" fill="#FFAF0A"/>
<path d="M52.3601 29.134L85.377 60.554" stroke="#EBEBEB" stroke-miterlimit="10"/>
<path d="M58.6096 25.4807C56.8289 24.2974 54.4509 24.711 53.1872 26.4342C47.8682 33.6373 37.2302 48.9625 25.0527 48.9625C21.5489 48.9625 17.6774 48.4225 17.6774 48.4225C17.6774 48.4225 18.2403 58.7618 30.5785 58.7618C35.3921 58.7618 41.1936 56.3953 44.2035 53.3969C45.3638 54.5572 42.6755 65.0229 29.6939 65.0229C29.6939 65.0229 33.9446 77.1199 57.5871 77.1199C72.3839 77.1199 83.7227 63.7707 87.6516 58.0266C88.6396 56.5791 88.5707 54.6606 87.4678 53.305C85.354 50.6972 82.1833 46.0215 82.1833 41.5411C82.1833 38.4968 83.3091 34.8091 85.0668 33.0399C88.9153 29.1914 94.4411 28.7893 100.3 22.9418C105.033 18.2087 107.997 11.5571 104.953 8.51274C101.908 5.46838 94.1309 6.82398 89.4093 11.5571C84.2052 16.7612 83.4814 22.4593 80.1154 25.8254C76.7493 29.1914 74.9802 29.1914 69.8565 29.1914C65.1808 29.1914 61.1714 27.1924 58.6096 25.4807Z" stroke="#322864" stroke-width="2.5" stroke-miterlimit="10" stroke-linecap="round" stroke-linejoin="round"/>
<path d="M49.5914 32.006L82.3326 63.7017" stroke="#322864" stroke-width="2.5" stroke-miterlimit="10" stroke-linecap="round" stroke-linejoin="round"/>
</svg>
